<svg xmlns="http://www.w3.org/2000/svg" xmlns:xlink="http://www.w3.org/1999/xlink" viewBox="0 0 158.99 192.67"><defs><style>.cls-1,.cls-7,.cls-8{fill:none;}.cls-2{clip-path:url(#clip-path);}.cls-3{fill:#965450;}.cls-4{fill:#76413b;}.cls-5{fill:#ffa65b;}.cls-6{clip-path:url(#clip-path-2);}.cls-7,.cls-8{stroke:#765e69;stroke-miterlimit:10;}.cls-7{stroke-width:1.41px;}.cls-9{fill:#352c38;}.cls-10{fill:#fff;}</style><clipPath id="clip-path" transform="translate(-7.55 -6.66)"><circle class="cls-1" cx="88.96" cy="88.96" r="88.96"/></clipPath><clipPath id="clip-path-2" transform="translate(-7.55 -6.66)"><path class="cls-1" d="M157,153.6c-5.79-15.57-40.24-23.27-48.31-28a44.92,44.92,0,0,1-22.54,5.89,45.48,45.48,0,0,1-20-4.51C54.91,131.81,26,139.46,20.77,153.6a175.52,175.52,0,0,0-8.23,30.32H165.27A175.52,175.52,0,0,0,157,153.6Z"/></clipPath></defs><g id="Layer_2" data-name="Layer 2"><g id="OBJECTS"><g class="cls-2"><path class="cls-3" d="M156,153.82c-5.94-16-42.31-23.61-48.68-28.25-8.18-5.94-5.57-25.64-5.57-25.64l-13.38.35L75,99.93s2.6,19.7-5.58,25.64c-6.36,4.64-42.73,12.27-48.68,28.25a175.11,175.11,0,0,0-8.17,30.1H164.16A174.64,174.64,0,0,0,156,153.82Z" transform="translate(-7.55 -6.66)"/><path class="cls-4" d="M72.49,121.9c6.26-.64,12.56-1.9,18-5a61.32,61.32,0,0,0,10.88-7.81,60.14,60.14,0,0,1,.35-9.21l-13.38.35L75,99.93S76.82,114,72.49,121.9Z" transform="translate(-7.55 -6.66)"/><path class="cls-5" d="M157,153.6c-5.79-15.57-40.24-23.27-48.31-28a44.92,44.92,0,0,1-22.54,5.89,45.48,45.48,0,0,1-20-4.51C54.91,131.81,26,139.46,20.77,153.6a175.52,175.52,0,0,0-8.23,30.32H165.27A175.52,175.52,0,0,0,157,153.6Z" transform="translate(-7.55 -6.66)"/><g class="cls-6"><line class="cls-7" x1="135.11" y1="120.17" x2="135.11" y2="192.67"/><line class="cls-7" x1="125.71" y1="120.17" x2="125.71" y2="192.67"/><line class="cls-7" x1="116.32" y1="120.17" x2="116.32" y2="192.67"/><line class="cls-7" x1="106.93" y1="120.17" x2="106.93" y2="192.67"/><line class="cls-7" x1="97.54" y1="120.17" x2="97.54" y2="192.67"/><line class="cls-7" x1="88.14" y1="120.17" x2="88.14" y2="192.67"/><line class="cls-7" x1="78.75" y1="120.17" x2="78.75" y2="192.67"/><line class="cls-7" x1="69.36" y1="120.17" x2="69.36" y2="192.67"/><line class="cls-7" x1="59.96" y1="120.17" x2="59.96" y2="192.67"/><line class="cls-7" x1="50.57" y1="120.17" x2="50.57" y2="192.67"/><line class="cls-7" x1="41.18" y1="120.17" x2="41.18" y2="192.67"/><line class="cls-7" x1="31.79" y1="120.17" x2="31.79" y2="192.67"/><line class="cls-7" x1="22.39" y1="120.17" x2="22.39" y2="192.67"/><line class="cls-7" x1="13" y1="120.17" x2="13" y2="192.67"/><line class="cls-7" x1="144.5" y1="120.17" x2="144.5" y2="192.67"/><line class="cls-8" y1="141.57" x2="158.99" y2="141.57"/><line class="cls-8" y1="150.96" x2="158.99" y2="150.96"/><line class="cls-8" y1="160.35" x2="158.99" y2="160.35"/><line class="cls-8" y1="169.75" x2="158.99" y2="169.75"/><line class="cls-8" y1="132.18" x2="158.99" y2="132.18"/></g><path class="cls-4" d="M65.88,69.23c-2.16-6.71-7.27-5.15-7.75-5s-5.79.84-4.88,7.83,5,10.83,8.82,9.71C66,81.16,68.06,76,65.88,69.23Z" transform="translate(-7.55 -6.66)"/><path class="cls-4" d="M110.14,69.23c2.16-6.71,7.28-5.15,7.76-5s5.79.84,4.88,7.83-5,10.83-8.82,9.71C110,81.16,108,76,110.14,69.23Z" transform="translate(-7.55 -6.66)"/><path class="cls-3" d="M114.6,58.68c-2.68-29.39-25-27.74-27.12-27.52C85.37,30.94,63,29.29,60.35,58.68c-2.69,29.56,10.47,48.87,27.13,47.81C104.13,107.55,117.3,88.24,114.6,58.68Z" transform="translate(-7.55 -6.66)"/><path class="cls-4" d="M89,83.55a4.73,4.73,0,0,1,.28-.55,5.43,5.43,0,0,1,.32-.51,10.65,10.65,0,0,1,1.55-1.73A10.92,10.92,0,0,1,92,80l-.14.39c-.24-2-.46-3.89-.67-5.84s-.4-3.91-.55-5.86c.41,1.92.74,3.85,1.11,5.78s.68,3.86,1,5.79l0,.18-.16.21a9.2,9.2,0,0,1-.77.87,10.44,10.44,0,0,1-.86.78,9.33,9.33,0,0,1-1,.69,4.44,4.44,0,0,1-.53.28A3.53,3.53,0,0,1,89,83.55Z" transform="translate(-7.55 -6.66)"/><path class="cls-9" d="M73.58,69.16c0,2.21.82,4,1.83,4s1.84-1.8,1.84-4-.82-4-1.84-4S73.58,67,73.58,69.16Z" transform="translate(-7.55 -6.66)"/><path class="cls-9" d="M98.79,69.16c0,2.21.82,4,1.84,4s1.83-1.8,1.83-4-.82-4-1.83-4S98.79,67,98.79,69.16Z" transform="translate(-7.55 -6.66)"/><path class="cls-9" d="M69.07,62.6a6.64,6.64,0,0,1,1.31-2.07,7.77,7.77,0,0,1,.87-.84,6.22,6.22,0,0,1,1.12-.79,7.16,7.16,0,0,1,1.37-.63A6.65,6.65,0,0,1,75.3,58l.81,0,.8.1a6.05,6.05,0,0,1,1.48.45,6.85,6.85,0,0,1,1.22.71,5.3,5.3,0,0,1,.91.84,3.76,3.76,0,0,1,.64.79c.17.25.29.48.4.67.2.38.3.6.3.6s-.24-.11-.61-.31c-.18-.1-.4-.21-.64-.36a7.14,7.14,0,0,0-.83-.41,7.71,7.71,0,0,0-1-.42,10.94,10.94,0,0,0-1.06-.33,6.88,6.88,0,0,0-1.12-.18,5.46,5.46,0,0,1-.57,0l-.59,0a9.31,9.31,0,0,0-1.16.18c-.38.13-.77.19-1.14.35a11.37,11.37,0,0,0-1.07.43c-.35.14-.66.32-1,.45l-.82.44-.65.36Z" transform="translate(-7.55 -6.66)"/><path class="cls-9" d="M94.46,62.6a6.57,6.57,0,0,1,1.32-2.07,7.64,7.64,0,0,1,.86-.84,6,6,0,0,1,1.13-.79,7.07,7.07,0,0,1,1.36-.63,6.75,6.75,0,0,1,1.56-.32l.81,0,.8.1a5.92,5.92,0,0,1,1.48.45,6.85,6.85,0,0,1,1.22.71,5.3,5.3,0,0,1,.91.84,3.76,3.76,0,0,1,.64.79c.17.25.29.48.4.67.2.38.3.6.3.6l-.61-.31c-.18-.1-.4-.21-.64-.36a7.14,7.14,0,0,0-.83-.41,7.71,7.71,0,0,0-1-.42,10.94,10.94,0,0,0-1.06-.33,6.88,6.88,0,0,0-1.12-.18,5.46,5.46,0,0,1-.57,0l-.58,0a9.46,9.46,0,0,0-1.17.18c-.38.13-.77.19-1.13.35A10.56,10.56,0,0,0,97.5,61c-.35.14-.66.32-1,.45l-.83.44-.65.36Z" transform="translate(-7.55 -6.66)"/><path class="cls-10" d="M76.29,87.84l24.76-.24S90.29,97.59,76.29,87.84Z" transform="translate(-7.55 -6.66)"/><path class="cls-9" d="M58.79,41.84s-1.5,36.75,2.75,54c3.2,13,12.5,16.5,12.5,16.5s22,8.5,34.25-5.25c3.53-4,9-24.75,6.5-62l-9-3.75s1.5,18.25,6,20.5c0,0-1.32,32.61-7,36.5-4.75,3.25,3.25-15-6-14.75s-9.5.5-9.5.5S72.79,81.34,73,87.84s2,10.75-.25,10.75-10.5-5.25-9-39.5c0,0,4.75-1.75,4.75-13.75C68.54,29.56,58.79,41.84,58.79,41.84Z" transform="translate(-7.55 -6.66)"/><path class="cls-9" d="M67.54,39.84s7.19,9.75,15.75,9.75c4.75,0,0-8.25,0-8.25S90,51.84,97,51.59s1-10.25,1-10.25,5.25,10.75,11.75,10.25,1-11,1-11,3,11.25,9.25,9.75-1.5-11.25-1.5-11.25,5.25,5,7.5,4.75,2.25-7-5.5-10.25c0,0,7.75-.25,8-4,.28-4.25-4.75-5.75-16.25-4.5,0,0,9.5-4,7.5-7.5s-10.5,1.5-10.5,1.5,8.5-4.75,3.5-8.5c-4.1-3.08-25.5-3-38.5,12.5,0,0,27-14.25,23.75-16.25-2.29-1.42-34.59,5.8-39.5,19.5C52.54,43.09,57,52.59,59,64Z" transform="translate(-7.55 -6.66)"/><path class="cls-10" d="M76.29,88.22l24.15.11S90.91,95.62,76.29,88.22Z" transform="translate(-7.55 -6.66)"/></g></g></g></svg>